# xmcd CD database file
#
# Track frame offsets:
#	150
#	15223
#	29313
#	42738
#	56138
#	72663
#	87590
#	103433
#	119555
#	135275
#	149618
#	150548
#	164365
#	177438
#	191833
#	204475
#	215278
#	229775
#	236965
#	250288
#
# Disc length: 4368 seconds
#
# Revision: 8
# Processed by: cddbd v1.5.2PL0 Copyright (c) Steve Scherf et al.
# Submitted via: CDex 1.51
#
DISCID=33110e14
DTITLE=Charlie Parker - Bird - The Complete Charlie Parker On Verve [CD5]
DYEAR=1950
DGENRE=Jazz
TTITLE0=Dancing In The Dark
TTITLE1=Out Of Nowhere
TTITLE2=Laura (tk 1 cpt)
TTITLE3=Laura (tk 2 mst)
TTITLE4=East Of The Sun
TTITLE5=They Can't Take That Away From Me
TTITLE6=Easy To Love
TTITLE7=I'm In The Mood For Love (tk 2 mst)
TTITLE8=I'm In The Mood For Love (tk 3 alt)
TTITLE9=I'll Remember April (tk 1 cpt)
TTITLE10=I'll Remember April (tk 2 fs)
TTITLE11=I'll Remember April (tk 3 [tk 2] mst)
TTITLE12=What Is This Thing Called Love
TTITLE13=April In Paris
TTITLE14=Repetition
TTITLE15=Easy To Love (live at Carnegie Hall)
TTITLE16=Rocker
TTITLE17=Celebrity [with Buddy Rich]
TTITLE18=Ballade [with Coleman Hawkins]
TTITLE19=Afro-Cuban Jazz Suite
EXTD=YEAR: 1950
EXTT0=
EXTT1=
EXTT2=
EXTT3=
EXTT4=
EXTT5=
EXTT6=
EXTT7=
EXTT8=
EXTT9=
EXTT10=
EXTT11=
EXTT12=
EXTT13=
EXTT14=
EXTT15=
EXTT16=
EXTT17=
EXTT18=
EXTT19=
PLAYORDER=
